<?xml version="1.0" standalone="no"?><!DOCTYPE svg PUBLIC "-//W3C//DTD SVG 1.1//EN" "http://www.w3.org/Graphics/SVG/1.1/DTD/svg11.dtd"><svg t="1761400201310" class="icon" viewBox="0 0 1026 1024" version="1.1" xmlns="http://www.w3.org/2000/svg" p-id="29379" xmlns:xlink="http://www.w3.org/1999/xlink" width="200.390625" height="200"><path d="M512 4.079681C230.501992 4.079681 2.039841 232.541833 2.039841 514.039841s228.462151 509.960159 509.960159 509.960159 509.960159-228.462151 509.960159-509.960159S795.537849 4.079681 512 4.079681z m95.87251 528.318725H387.569721c-12.239044 0-22.438247-10.199203-22.438247-22.438247 0-12.239044 10.199203-18.358566 22.438247-18.358565h220.302789c24.478088 0 24.478088 40.796813 0 40.796812z m0 104.031873H387.569721c-12.239044 0-22.438247-4.079681-22.438247-16.318725 0-12.239044 10.199203-24.478088 22.438247-24.478088h220.302789c24.478088-2.039841 24.478088 40.796813 0 40.796813zM365.131474 399.808765c0-12.239044 10.199203-10.199203 22.438247-10.199203h175.426295c26.517928 0 26.517928 40.796813 0 40.796813H387.569721c-12.239044 0-22.438247-18.358566-22.438247-30.59761z m399.808765 308.015936c0 36.717131-36.717131 71.394422-73.434263 71.394423H342.693227c-36.717131 0-67.314741-34.677291-67.314741-71.394423V312.095618c0-36.717131 30.59761-65.2749 67.314741-65.274901h259.059761v44.876494H340.653386c-12.239044 0-24.478088 10.199203-24.478087 22.438247v395.729084c0 12.239044 12.239044 30.59761 24.478087 30.597609h361.051793c12.239044 0 22.438247-18.358566 22.438247-30.597609V450.804781h40.796813v257.01992zM693.545817 379.410359s-8.159363 14.278884-22.438247 22.438247l-40.796813 18.358565s-10.199203 6.119522-12.239044-10.199203l6.119522-44.876494s0-8.159363 10.199203-22.438247l95.87251-126.470119 53.035857 40.796812-89.752988 122.390439z m120.350597-155.027889l-10.199203 14.278885-53.035856-40.796813 14.278884-16.318725c12.239044-12.239044 30.59761-2.039841 30.59761-2.039841 12.239044 8.159363 20.398406 20.398406 20.398406 20.398406 6.119522 12.239044-2.039841 24.478088-2.039841 24.478088z" fill="#AED286" p-id="29380"></path></svg>