<?xml version="1.0" standalone="no"?><!DOCTYPE svg PUBLIC "-//W3C//DTD SVG 1.1//EN" "http://www.w3.org/Graphics/SVG/1.1/DTD/svg11.dtd"><svg t="1761399185365" class="icon" viewBox="0 0 1024 1024" version="1.1" xmlns="http://www.w3.org/2000/svg" p-id="1932" xmlns:xlink="http://www.w3.org/1999/xlink" width="200" height="200"><path d="M34.623689 296.00779h174.488802v448.685491H34.623689z" fill="#FFD795" p-id="1933"></path><path d="M56.858548 820.296787l79.217916-155.469523 399.778773 203.703213-79.217916 155.469523z" fill="#FFD795" p-id="1934"></path><path d="M913.498859 188.971373L577.258937 15.753846a143.404869 143.404869 0 0 0-130.692113 0L110.501391 189.993379A134.979552 134.979552 0 0 0 34.623689 314.005063v392.599806a143.255307 143.255307 0 0 0 75.877702 124.933982l338.283934 174.239533a136.72444 136.72444 0 0 0 65.333593 15.903408 142.73184 142.73184 0 0 0 65.333593-15.903408l334.021421-173.1926a140.438559 140.438559 0 0 0 75.877702-124.933983V312.933204a139.591042 139.591042 0 0 0-75.827848-123.961831zM480.392725 77.672444a71.216358 71.216358 0 0 1 31.6074-8.350536 63.837975 63.837975 0 0 1 31.6074 7.353457l336.165141 173.1926a95.594937 95.594937 0 0 1 13.709835 8.400389l-382.529309 197.421617-382.504382-194.18111a30.236417 30.236417 0 0 1 13.709835-8.40039zM144.252511 768.373905a69.122493 69.122493 0 0 1-38.985784-62.990458v-378.889971l141.211295 72.43778v158.46076a34.249659 34.249659 0 0 0 19.069133 31.482765l25.425511 12.712756a9.970789 9.970789 0 0 0 7.478092 2.093865 17.099903 17.099903 0 0 0 17.897566-17.872639v-151.157156l158.884518 80.863096v425.104576z m735.545082 0l-332.999415 173.217526V515.514703l371.960272-188.946446v378.889971a69.122493 69.122493 0 0 1-38.985784 62.990457z" p-id="1935"></path></svg>